<svg xmlns="http://www.w3.org/2000/svg" viewBox="0 0 512 512">
<defs>
  <linearGradient id="g" x1="0" y1="0" x2="1" y2="1"><stop stop-color="#2f91ff"/><stop offset="1" stop-color="#6b5cff"/></linearGradient>
  <filter id="s" x="-30%" y="-30%" width="160%" height="160%"><feDropShadow dx="0" dy="16" stdDeviation="18" flood-opacity=".35"/></filter>
</defs>
<rect width="512" height="512" rx="118" fill="#07101d"/>
<g filter="url(#s)">
  <path d="M104 146c0-35 29-64 64-64h176c35 0 64 29 64 64v128c0 35-29 64-64 64H226l-74 58v-58h-4c-25 0-44-20-44-45V146z" fill="url(#g)"/>
</g>
<path d="M166 192h180M166 242h132" stroke="#fff" stroke-width="28" stroke-linecap="round" opacity=".96"/>
<circle cx="170" cy="342" r="25" fill="#fff"/>
<circle cx="236" cy="342" r="25" fill="#fff" opacity=".85"/>
<circle cx="302" cy="342" r="25" fill="#fff" opacity=".7"/>
<text x="256" y="455" text-anchor="middle" font-family="Arial,sans-serif" font-size="42" font-weight="800" fill="#fff" letter-spacing="3">CHATGRAM</text>
</svg>